<svg width="20" height="21" viewBox="0 0 20 21" fill="none" xmlns="http://www.w3.org/2000/svg">
<g filter="url(#filter0_d)">
<path fill-rule="evenodd" clip-rule="evenodd" d="M15 0C17.7614 0 20 2.23858 20 5L20 15C20 17.7614 17.7614 20 15 20L5 20C2.23858 20 0 17.7614 0 15L0 5C0 2.23858 2.23858 0 5 0L15 0Z" fill="#1DA4A4"/>
</g>
<path fill-rule="evenodd" clip-rule="evenodd" d="M9.73578 4.73577L14.5239 9.52386C14.7778 9.79053 14.7778 10.2096 14.5239 10.4762L9.73578 15.2643C9.62067 15.3804 9.44675 15.4153 9.29576 15.3526C9.14477 15.2899 9.04672 15.1421 9.04769 14.9786V12.381L6.0834 12.381C5.61659 12.381 5.23816 12.0026 5.23816 11.5358L5.23816 8.46434C5.23816 7.99753 5.61659 7.6191 6.0834 7.6191L9.04769 7.6191V5.02148C9.04672 4.85799 9.14477 4.71017 9.29576 4.64747C9.44675 4.58478 9.62067 4.61967 9.73578 4.73577Z" fill="white"/>
<defs>
<filter id="filter0_d" x="0" y="0" width="20" height="21" filterUnits="userSpaceOnUse" color-interpolation-filters="sRGB">
<feFlood flood-opacity="0" result="BackgroundImageFix"/>
<feColorMatrix in="SourceAlpha" type="matrix" values="0 0 0 0 0 0 0 0 0 0 0 0 0 0 0 0 0 0 127 0"/>
<feOffset dy="1"/>
<feColorMatrix type="matrix" values="0 0 0 0 0 0 0 0 0 0 0 0 0 0 0 0 0 0 0.35 0"/>
<feBlend mode="normal" in2="BackgroundImageFix" result="effect1_dropShadow"/>
<feBlend mode="normal" in="SourceGraphic" in2="effect1_dropShadow" result="shape"/>
</filter>
</defs>
</svg>
